inDegrees=no
num_controls=7
num_derivatives=13
num_iterations=132
num_multipliers=7
num_parameters=0
num_slacks=7
num_states=26
objective=0.448539
objective_accelerations=0.049521
objective_balance=0.007664
objective_effort=0.036960
objective_height=0.349455
objective_ligament=0.004939
solver_duration=1894.192852
status=Solve_Succeeded
success=true
DataType=double
version=3
OpenSimVersion=4.5
endheader
time	/jointset/ground_pelvis/pelvis_tilt/value	/jointset/ground_pelvis/pelvis_tx/value	/jointset/ground_pelvis/pelvis_ty/value	/jointset/hip_l/hip_flexion_l/value	/jointset/hip_l/hip_adduction_l/value	/jointset/hip_l/hip_rotation_l/value	/jointset/back/lumbar_extension/value	/jointset/patellofemoral_l/patellar_flexion_l/value	/jointset/knee_l/knee_flexion_l/value	/jointset/knee_l/knee_adduction_l/value	/jointset/knee_l/knee_rotation_l/value	/jointset/ankle_l/ankle_angle_l/value	/jointset/subtalar_l/subtalar_angle_l/value	/jointset/ground_pelvis/pelvis_tilt/speed	/jointset/ground_pelvis/pelvis_tx/speed	/jointset/ground_pelvis/pelvis_ty/speed	/jointset/hip_l/hip_flexion_l/speed	/jointset/hip_l/hip_adduction_l/speed	/jointset/hip_l/hip_rotation_l/speed	/jointset/back/lumbar_extension/speed	/jointset/patellofemoral_l/patellar_flexion_l/speed	/jointset/knee_l/knee_flexion_l/speed	/jointset/knee_l/knee_adduction_l/speed	/jointset/knee_l/knee_rotation_l/speed	/jointset/ankle_l/ankle_angle_l/speed	/jointset/subtalar_l/subtalar_angle_l/speed	/forceset/tau_hip_flexion_l	/forceset/tau_hip_adduction_l	/forceset/tau_hip_rotation_l	/forceset/tau_knee_flexion_l	/forceset/tau_ankle_angle_l	/forceset/tau_subtalar_angle_l	/forceset/tau_lumbar_extension	lambda_cid13_p0	lambda_cid13_p1	lambda_cid13_p2	lambda_cid13_p3	lambda_cid13_p4	lambda_cid13_p5	lambda_cid14_p0	/jointset/ground_pelvis/pelvis_tilt/accel	/jointset/ground_pelvis/pelvis_tx/accel	/jointset/ground_pelvis/pelvis_ty/accel	/jointset/hip_l/hip_flexion_l/accel	/jointset/hip_l/hip_adduction_l/accel	/jointset/hip_l/hip_rotation_l/accel	/jointset/back/lumbar_extension/accel	/jointset/patellofemoral_l/patellar_flexion_l/accel	/jointset/knee_l/knee_flexion_l/accel	/jointset/knee_l/knee_adduction_l/accel	/jointset/knee_l/knee_rotation_l/accel	/jointset/ankle_l/ankle_angle_l/accel	/jointset/subtalar_l/subtalar_angle_l/accel	gamma_cid13_p0	gamma_cid13_p1	gamma_cid13_p2	gamma_cid13_p3	gamma_cid13_p4	gamma_cid13_p5	gamma_cid14_p0
0.5	-0.4498618884165625	-0.07727453063585855	0.7635702558362173	1.265467123604333	-0.3097645800095014	-0.05079078706642038	-0.3278820533358243	0.6776421008413201	0.6776421008413203	-0.172980199636048	0.1743334284988173	0.02692053978743731	-0.05097706353969959	-0.754565752559224	-0.2807214885078608	-0.4969331895459334	2.390395569593232	-0.03858309182345318	0.6101964843952522	-0.6224721422394114	1.755879764179487	1.755879764179446	-0.007518202333258324	0.001587381562156208	0.2108940205360298	-0.01749973910463106	-0.244417238991982	0.01654522481682326	-0.0214459186859242	-0.2030363148717442	0.1497109040057673	0.04144352217467346	0.2193456436788785	9.251958687578856	-22.32884340411234	6.252847821611046	-5.925836377221441	-606.3812739406429	-59.10128078096903	-28.95430989751332	0.6129991140518962	0.7018951746593378	-0.3264625370443783	-1.482641593815668	0.5853022831851949	-0.2633504632713182	1.7229078266317	-1.0534462694554	-1.053446269455423	0.01618167240750546	-0.02988334480157552	-0.1164029395666638	0.5630176737962822	-2.333297121558501e-07	-8.18121937844997e-07	1.186388103374229e-06	3.360844178264799e-08	-3.313743937033748e-07	5.891921044231603e-08	-2.84971558958016e-07
0.51	-0.4573752507250525	-0.08004632318493218	0.7585856511975263	1.289292687865064	-0.3101225850981892	-0.04470233558298781	-0.3340206988826606	0.6951454218345153	0.6951454218345235	-0.1730573307165322	0.1743484369118958	0.02902273305857112	-0.0511254743399551	-0.7480102353995303	-0.2736130738374598	-0.4998861168086219	2.374406513418243	-0.03302571632520702	0.6073841945001981	-0.6051925200780224	1.744550286926337	1.744550286926313	-0.007878740571457907	0.001439735692300387	0.2094992082199743	-0.01219122987486716	-0.2526038947362169	0.01717185271032669	-0.02155901854641882	-0.2043170333185872	0.1498576378796496	0.04197080209685394	0.2256671978690947	9.051413832749326	-22.41487391180079	6.143368774554531	-5.923178674511234	-610.9037254183453	-58.68999542017666	-27.94531223361305	0.6912612778195122	0.7189244580429981	-0.2645371012848453	-1.703698930948805	0.5396873273222539	-0.3068960309425721	1.740156468391201	-1.207757915456603	-1.207757915453859	-0.05783240162541069	-0.003708945160441941	-0.1578343186674714	0.5133878669516807	-2.901755668461206e-07	-6.579926566884474e-07	1.454655068508115e-06	9.742979600359222e-08	-3.575456014843135e-07	1.13567496584246e-07	-3.093880569979152e-07
0.52	-0.4648201712097685	-0.08274630961833926	0.7535745514301277	1.312949029303722	-0.3104252700030579	-0.0386453525541704	-0.3399846147963837	0.7125284361627369	0.7125284361627543	-0.1731371993453391	0.1743626681188564	0.03110961541833605	-0.05122107598403598	-0.7408773878041792	-0.2663602653745534	-0.502232215287461	2.356551005178923	-0.02751905505984373	0.6039027934723399	-0.5875262156166854	1.731818431184719	1.731818431184714	-0.008065711997325217	0.001431940339130038	0.2078318382622193	-0.006937907869693086	-0.2607905504804563	0.01779848060383133	-0.02167211840693104	-0.205597751765428	0.1500043717535327	0.0424980820190358	0.2319887520593052	8.84531839626305	-22.5035163030672	6.038400348490757	-5.927632483910815	-615.5265283550607	-58.35619615004058	-26.92791126749392	0.7284652011833815	0.7307739331603887	-0.2050967802744956	-1.855932006681942	0.5751594366086166	-0.3971726898320949	1.800244286621308	-1.333921967148726	-1.333921967148724	0.05089503487395682	-0.001913241464485679	-0.1709144679065615	0.5519802288783141	-2.919581134397192e-07	-5.738731633236012e-07	1.462237333596583e-06	1.15224782284481e-07	-3.476574966837178e-07	1.476891984826418e-07	-3.014057948363075e-07
0.53	-0.472190995383827	-0.08537312479192846	0.7485430526008894	1.336417679627852	-0.3106731652163248	-0.03262586833033625	-0.3457699974364297	0.7297771163385646	0.7297771163385781	-0.1732183423302609	0.1743769849796024	0.03317847867803039	-0.05126444718133236	-0.7331931082846463	-0.2589852433971532	-0.5039626920977248	2.336872971292014	-0.02207847562044076	0.5999254598823656	-0.5695002957677486	1.71768447743687	1.717684477436878	-0.00816585164723042	0.00142676223946475	0.2058965082202537	-0.001756080831228417	-0.2688748126277174	0.01820879175480976	-0.02175164605450828	-0.2069374652426471	0.150152563278155	0.04288189220387466	0.2381814477800675	8.635180350916368	-22.53083723382083	5.925591286009216	-5.87819455081744	-620.1354503594873	-57.94341369077808	-25.91067868146494	0.8025238149630588	0.74352013625256	-0.1413628547873601	-2.069696633213121	0.5256089576053392	-0.4085667678630082	1.811268327773051	-1.488041617599429	-1.488041617597364	-0.04094009943290586	-0.0008359943537103448	-0.2114854797035053	0.4982346937556728	-2.746427420698354e-07	-5.169522914805865e-07	1.384263682749487e-06	1.124576034929338e-07	-3.222954069343934e-07	1.673123061926055e-07	-2.832776505371873e-07
0.54	-0.4794821538651667	-0.08792565898449908	0.7434973810588716	1.359680358102407	-0.3108672342831972	-0.0266482680572595	-0.3513736203792386	0.7468774750691157	0.7468774750691253	-0.1733005810385864	0.1743910468793201	0.03522665999583275	-0.05125660995775911	-0.7249442492601195	-0.2515040691708378	-0.5050667578433919	2.3153566352644	-0.016753825781069	0.5955260033210753	-0.5511742761690847	1.702154142129163	1.702154142129185	-0.008284856677540519	0.0013809481343529	0.2036954498838092	0.00330377630424206	-0.2769590747749893	0.01861910290578697	-0.0218311737021129	-0.2082771787198631	0.1503007548027782	0.04326570238871241	0.2443741435008182	8.420935217057677	-22.56096830223873	5.817262255320318	-5.845400653095036	-624.8275615125621	-57.60361631924129	-24.89423168775997	0.8413811021821892	0.7520043829434148	-0.07981456735517162	-2.223592434822712	0.5519735166023698	-0.4815972840952801	1.86026423656673	-1.613198279120227	-1.613198279120285	0.04712195879297481	-0.01004044255380304	-0.2240601268023646	0.5275862482794724	-2.361977593360985e-07	-4.901235115340667e-07	1.211632422782191e-06	8.694079525954214e-08	-2.798131636247734e-07	1.708944160770697e-07	-2.539242749369895e-07
0.55	-0.4866881484975976	-0.09040292112199119	0.738443804535565	1.382719016852471	-0.3110084460234933	-0.02071710812569057	-0.3567925067764306	0.7638158277973742	0.7638158277973882	-0.1733834454856835	0.174404635304202	0.03725165966140746	-0.05119856555358555	-0.7161675233731434	-0.2439368552758404	-0.5055417843182006	2.29208050736366	-0.01151080138551121	0.5906328433374458	-0.5325638349891977	1.685291822780684	1.685291822780689	-0.008286057360690789	0.001335319289136317	0.2012644878068373	0.008282002428795544	-0.2848679091700975	0.01885737900695529	-0.02188936053440936	-0.2096870600988027	0.1505063929739365	0.04348130495074806	0.2503828450776053	8.223552978838191	-22.52259056906977	5.699827926410763	-5.778760173598451	-629.453032955331	-57.16935949924172	-23.87919957344851	0.9088629609162061	0.7608199550272661	-0.01538364080010386	-2.423848365394994	0.50703668128057	-0.5043588791300038	1.867309300745015	-1.75638829131714	-1.756388291319727	-0.02348351880305674	-0.002282804892773718	-0.2586113078550584	0.4794203873962747	-2.066807175066795e-07	-4.543604228803258e-07	1.083457114819681e-06	6.942558847052859e-08	-2.445459275991358e-07	1.770736018787104e-07	-2.302214030233483e-07
0.5600000000000001	-0.4938037669453681	-0.09280416310808343	0.7333886703568594	1.405516069243986	-0.3110979135637837	-0.01483711649868509	-0.3620241137134157	0.7805788294264261	0.7805788294264484	-0.1734662704269978	0.1744176757007543	0.0392511502942704	-0.05109144296959589	-0.7068690123277305	-0.2363000388908618	-0.5053782889232673	2.267035363555106	-0.006404985780029271	0.5852923424084868	-0.5137183841274976	1.667083922287988	1.667083922287975	-0.008276955521201446	0.001271342468431474	0.1985936433414466	0.01311941226746929	-0.292776743565222	0.01909565510812281	-0.02194754736669131	-0.2110969414777438	0.1507120311450965	0.04369690751278321	0.2563915466543744	8.020568029786586	-22.48601500734538	5.585860505897886	-5.718983830122478	-634.1801764853701	-56.79804978086283	-22.86654701703915	0.9457381338695637	0.7659248809396439	0.04788980659326347	-2.577395616385543	0.5245317585871997	-0.571065473161194	1.907266172929329	-1.882314507963618	-1.882314507963693	0.04918246332089385	-0.01371003765146178	-0.2720366044861072	0.4994229911035227	-1.878772047624417e-07	-4.078761637779199e-07	1.008628949262913e-06	6.15123034147684e-08	-2.179367003142772e-07	1.863692787809629e-07	-2.132991355335747e-07
0.5700000000000001	-0.5008239217810451	-0.09512876851403415	0.7283383537172488	1.42805412825727	-0.3111369093465476	-0.009012875739387445	-0.3670661559410193	0.7971532389045849	0.7971532389045899	-0.1735485973250779	0.174430032973063	0.04122282970535582	-0.05093653780484443	-0.6970813512767844	-0.2286166325467475	-0.5045780185435277	2.240295531669952	-0.001421196511520577	0.5794741109441041	-0.4946643709258637	1.647583619256608	1.647583619256589	-0.008180944814024068	0.001206529706906831	0.1957046739744713	0.01783361995145176	-0.3004721725587505	0.0191720274550428	-0.02197840556835382	-0.2124720789742225	0.1508302243711914	0.04379699665948011	0.2621733132060191	7.795168087804925	-22.39625280589659	5.464447517149852	-5.589727380030378	-638.7407538166869	-56.35826601606774	-21.85739078726702	1.007346406794311	0.7702213812346043	0.1121081449611352	-2.764441917704665	0.4811668648411781	-0.5996368622628806	1.908322463910395	-2.016000568428775	-2.016000568429615	-0.00910021060596761	-0.002117084288120607	-0.302957991132668	0.4531670358098626	-1.695753526683399e-07	-3.617821921203465e-07	9.33471084698772e-07	5.410833529786082e-08	-1.92532893926056e-07	1.923863555429536e-07	-1.962579266879506e-07
0.58	-0.5077437867429969	-0.09737640528252627	0.7232992422796948	1.450316355963074	-0.3111268943658548	-0.003249304270570695	-0.3719168873225818	0.8135262228788896	0.8135262228788798	-0.173629746233091	0.174441892079977	0.04316449324510564	-0.05073534108750032	-0.6868110375823511	-0.2209063113991358	-0.5031372485119181	2.211869102059826	0.003397166911327451	0.5731584843122788	-0.4754562149190319	1.626798821517085	1.62679882151706	-0.008041357507730742	0.001171709389975544	0.1925904690743186	0.02237772278600503	-0.3081676015522981	0.01924839980196265	-0.02200926377002857	-0.2138472164706987	0.1509484175972889	0.0438970858061774	0.2679550797576422	7.563065567881491	-22.3078229051296	5.346109708741066	-5.461447603949346	-643.4163737987528	-55.97664014410025	-20.85311929036434	1.042268662567017	0.7713078416391093	0.1759897369672728	-2.914715161379931	0.4914465894550661	-0.6705445066496867	1.938094733968896	-2.139213449592258	-2.139213449592347	0.05789778314408037	-0.007711548732799422	-0.3170837111215677	0.4654020212176847	-1.519268260720899e-07	-3.161965017862761e-07	8.578838446831681e-07	4.736766365945902e-08	-1.686989380078747e-07	1.94133627471115e-07	-1.790618174719166e-07
